<svg width="96" height="96" viewBox="0 0 96 96" fill="none" xmlns="http://www.w3.org/2000/svg">
<path d="M31.4 27H51.2L62 37.75V64.625C62 67.5935 59.5823 70 56.6 70H31.4C28.4177 70 26 67.5935 26 64.625V32.375C26 29.4065 28.4177 27 31.4 27Z" fill="white" stroke="#F43F5E" stroke-width="4" stroke-linejoin="round"/>
<path d="M51 27V38H62" stroke="#F43F5E" stroke-width="4" stroke-linecap="round" stroke-linejoin="round"/>
<path d="M35 55L55 44" stroke="#FDA4AF" stroke-width="6" stroke-linecap="round"/>
<path d="M62 68C67.5228 68 72 63.7467 72 58.5C72 53.2533 67.5228 49 62 49C56.4772 49 52 53.2533 52 58.5C52 63.7467 56.4772 68 62 68Z" fill="white" stroke="#F43F5E" stroke-width="4"/>
<path d="M62 52V65" stroke="#F43F5E" stroke-width="2" stroke-linecap="round"/>
<path d="M56 59H68" stroke="#F43F5E" stroke-width="2" stroke-linecap="round"/>
</svg>
